{"title":"BBC.South.Pacific.5of6.HDTV.720p.Legendado.PT-BR.mkv","uid":9134699,"size":1641288479,"categoryP":"video","categoryS":"hd___tv_shows","magnet":"?xt=urn:btih:a5e8d90a3582892066d13581129d1574c47b7392&amp;dn=BBC.South.Pacific.5of6.HDTV.720p.Legendado.PT-BR.mkv&amp;tr=udp%3A%2F%2Ftracker.openbittorrent.com%3A80&amp;tr=udp%3A%2F%2Fopen.demonii.com%3A1337&amp;tr=udp%3A%2F%2Ftracker.coppersurfer.tk%3A6969&amp;tr=udp%3A%2F%2Fexodus.desync.com%3A6969","seeders":1,"leechers":1,"uploader":null,"files":1,"time":1383393430,"description":"Episode 1: https://thepiratebay.se/torrent/9134613\nEpisode 2: https://thepiratebay.se/torrent/9134628\nEpisode 3: https://thepiratebay.se/torrent/9134633\nEpisode 4: https://thepiratebay.se/torrent/9134691\n\n++++++++++++++++++++++++++++++++++++++++++++++++++\n\nAudio: English\nLegendas/subtitles: Portugues (hardsubed)\n\n\nVideo\nID                             : 1\nFormat                         : AVC\nFormat/Info                    : Advanced Video Codec\nCodec ID                       : V_MPEG4/ISO/AVC\nDuration                       : 49mn 53s\nBit rate                       : 3 999 Kbps\nWidth                          : 1 280 pixels\nHeight                         : 720 pixels\nDisplay aspect ratio           : 16:9\nFrame rate mode                : Constant\nFrame rate                     : 60.000 fps\nColor space                    : YUV\nChroma subsampling             : 4:2:0\nBit depth                      : 8 bits\nScan type                      : Progressive\nBits/(Pixel*Frame)             : 0.072\nStream size                    : 1.36 GiB (89%)\nWriting library                : x264 core 133 r2334 a3ac64b\nLanguage                       : English\nDefault                        : Yes\nForced                         : No\n\nAudio\nID                             : 2\nFormat                         : AC-3\nFormat/Info                    : Audio Coding 3\nCodec ID                       : A_AC3\nDuration                       : 49mn 53s\nBit rate mode                  : Constant\nBit rate                       : 384 Kbps\nChannel(s)                     : 2 channels\nChannel positions              : Front: L R\nSampling rate                  : 48.0 KHz\nBit depth                      : 16 bits\nStream size                    : 137 MiB (9%)\nLanguage                       : English\nDefault                        : Yes\nForced                         : No\t\t","torrent":{"xt":"urn:btih:a5e8d90a3582892066d13581129d1574c47b7392","amp;dn":"BBC.South.Pacific.5of6.HDTV.720p.Legendado.PT-BR.mkv","amp;tr":["udp%3A%2F%2Ftracker.openbittorrent.com%3A80","udp%3A%2F%2Fopen.demonii.com%3A1337","udp%3A%2F%2Ftracker.coppersurfer.tk%3A6969","udp%3A%2F%2Fexodus.desync.com%3A6969"],"infoHash":"a5e8d90a3582892066d13581129d1574c47b7392","infoHashBuffer":{"type":"Buffer","data":[165,232,217,10,53,130,137,32,102,209,53,129,18,157,21,116,196,123,115,146]},"announce":[],"urlList":[]}}